<?xml version="1.0" encoding="utf-8"?>
<!-- Generator: Adobe Illustrator 25.0.0, SVG Export Plug-In . SVG Version: 6.00 Build 0)  -->
<svg version="1.1" id="Layer_1" xmlns="http://www.w3.org/2000/svg" xmlns:xlink="http://www.w3.org/1999/xlink" x="0px" y="0px"
	 viewBox="0 0 318 96" style="enable-background:new 0 0 318 96;" xml:space="preserve">
<style type="text/css">
	.st0{fill:#FFFFFF;}
	.st1{fill:#F9F9F9;}
</style>
<g>
	<path class="st0" d="M70.2,11.5h11.2v6H70.2v4.1h12.2v6.6H63.2V0.7h19.2v6.5H70.2V11.5z"/>
	<path class="st0" d="M86.1,0.7h6.6l6.7,11.8l2.3,5.5l0.2,0c0,0-0.7-4.8-0.8-4.8V0.7h6.9v27.6H101l-6.2-10.9l-2.4-5.5l-0.2,0
		l0.9,5.3v11h-7V0.7z"/>
	<path class="st0" d="M126.5,8.9c-1.5-3.7-7.7-2.8-7.7,0.8v9.5c0,4.3,8.1,4.3,8.1,0v-1h-4.4v-5.8h11.1v6.9c0,6.4-5.3,9.6-10.8,9.6
		c-5.5,0-10.9-3.2-10.9-9.6V9.6c0-6.2,5.5-9.4,10.9-9.4c3.6,0,7.7,1.5,9.6,5.9L126.5,8.9z"/>
	<path class="st0" d="M143.9,11.5h11.2v6h-11.2v4.1H156v6.6h-19.2V0.7H156v6.5h-12.2V11.5z"/>
	<path class="st0" d="M159.8,0.7h6.6l6.7,11.8l2.3,5.5l0.2,0c0,0-0.7-4.8-0.8-4.8V0.7h6.9v27.6h-7.1l-6.2-10.9l-2.4-5.5l-0.2,0
		l0.9,5.3v11h-7V0.7z"/>
	<path class="st0" d="M193.1,28.3h-7V0.7h7v10.4h8V0.7h7v27.6h-7V17.9h-8V28.3z"/>
	<path class="st0" d="M219.5,11.5h11.2v6h-11.2v4.1h12.2v6.6h-19.2V0.7h19.2v6.5h-12.2V11.5z"/>
	<path class="st0" d="M242.4,28.3h-7V0.7h7V28.3z"/>
	<path class="st0" d="M255.1,19.5h-1.2v8.8h-7.1V0.7h11c5.7,0,10.1,2.6,10.3,9.1c0,5.1-2.1,8-5.4,9l7.5,9.5h-8.7L255.1,19.5z
		 M257.9,13.5c4.4,0,4.4-6.3,0-6.3h-4.1v6.3H257.9z"/>
	<path class="st0" d="M271.1,9.8c0-6.4,5.7-9.5,11.4-9.5c5.7,0,11.5,3.2,11.5,9.5v9.4c0,6.3-5.7,9.5-11.4,9.5
		c-5.7,0-11.5-3.2-11.5-9.5V9.8z M278,19.2c0,2,2.3,3,4.5,3c2.2,0,4.4-1,4.4-3V9.8c0-2.1-2.3-3.1-4.6-3.1c-2.2,0-4.4,1.1-4.4,3.1
		V19.2z"/>
	<path class="st0" d="M300.7,19.5c2.8,3.4,8.8,3.5,9,0.5c0.1-1.6-2.5-2.5-4.7-2.8c-4.4-0.7-8.5-3.5-8.5-8.8c0-5.4,4.9-8.3,10-8.3
		c3.4,0,6.6,0.9,9.4,4.4l-4.6,3.5c-2.9-3.1-7.8-3-8,0.2c0.1,1.3,1.5,2.1,3.7,2.6c4.9,0.9,9.8,2.6,9.5,9.4c-0.2,5.3-5.8,8.3-10.9,8.3
		c-3.3,0-6.8-1.7-9.4-5L300.7,19.5z"/>
</g>
<g>
	<path class="st0" d="M66.3,53.1c2.8,3.4,8.8,3.5,9,0.5c0.1-1.6-2.5-2.5-4.7-2.8c-4.4-0.7-8.5-3.5-8.5-8.8c0-5.4,4.9-8.3,10-8.3
		c3.4,0,6.6,0.9,9.4,4.4l-4.6,3.5c-2.9-3.1-7.8-3-8,0.2c0.1,1.3,1.5,2.1,3.7,2.6c4.9,0.9,9.8,2.6,9.5,9.4c-0.2,5.3-5.8,8.3-10.9,8.3
		c-3.3,0-6.8-1.7-9.4-5L66.3,53.1z"/>
	<path class="st0" d="M92.2,45h11.2v6H92.2v4.1h12.2v6.6H85.2V34.2h19.2v6.5H92.2V45z"/>
	<path class="st0" d="M108.1,34.2h7l5.8,13.5l5.8-13.5h7v27.6h-7l0-8l0.4-5.6l-0.2,0l-3.6,9.5h-4.8l-3.7-9.5l-0.2,0l0.5,5.6v8h-7
		V34.2z"/>
</g>
<g>
	<path class="st0" d="M70.2,79.3h10.6v6.5H70.2v9.5h-7.1V67.7h19.2v6.6H70.2V79.3z"/>
	<path class="st0" d="M93.9,86.6h-1.2v8.8h-7.1V67.7h11c5.7,0,10.1,2.6,10.3,9.1c0,5.1-2.1,8-5.4,9l7.5,9.5h-8.7L93.9,86.6z
		 M96.8,80.6c4.4,0,4.4-6.3,0-6.3h-4.1v6.3H96.8z"/>
	<path class="st0" d="M109.9,76.8c0-6.4,5.7-9.5,11.4-9.5c5.7,0,11.5,3.2,11.5,9.5v9.4c0,6.3-5.7,9.5-11.4,9.5
		c-5.7,0-11.5-3.2-11.5-9.5V76.8z M116.9,86.2c0,2,2.3,3,4.5,3c2.2,0,4.4-1,4.4-3v-9.4c0-2.1-2.3-3.1-4.6-3.1
		c-2.2,0-4.4,1.1-4.4,3.1V86.2z"/>
	<path class="st0" d="M136.5,67.7h6.6l6.7,11.8l2.3,5.5l0.2,0c0,0-0.7-4.8-0.8-4.8V67.7h6.9v27.6h-7.1l-6.2-10.9l-2.4-5.5l-0.2,0
		l0.9,5.3v11h-7V67.7z"/>
	<path class="st0" d="M175.7,74.3v21h-7.1v-21h-7.3v-6.6H183v6.6H175.7z"/>
	<path class="st0" d="M192.8,78.6H204v6h-11.2v4.1h12.2v6.6h-19.2V67.7h19.2v6.5h-12.2V78.6z"/>
	<path class="st0" d="M215.6,95.3h-7V67.7h7V95.3z"/>
	<path class="st0" d="M228.3,86.6h-1.2v8.8H220V67.7h11c5.7,0,10.1,2.6,10.3,9.1c0,5.1-2.1,8-5.4,9l7.5,9.5h-8.7L228.3,86.6z
		 M231.2,80.6c4.4,0,4.4-6.3,0-6.3h-4.1v6.3H231.2z"/>
	<path class="st0" d="M268.6,95.3h-7.5l-1.8-5.5H252l-1.7,5.5h-7.5l9.6-27.6h6.4L268.6,95.3z M257.7,83.6l-1.9-8.1h-0.2l-2,8.1
		H257.7z"/>
	<path class="st0" d="M273.1,86.6c2.8,3.4,8.8,3.5,9,0.5c0.1-1.6-2.5-2.5-4.7-2.8c-4.4-0.7-8.5-3.5-8.5-8.8c0-5.4,4.9-8.3,10-8.3
		c3.4,0,6.6,0.9,9.4,4.4l-4.6,3.5c-2.9-3.1-7.8-3-8,0.2c0.1,1.3,1.5,2.1,3.7,2.6c4.9,0.9,9.8,2.6,9.5,9.4c-0.2,5.3-5.8,8.3-10.9,8.3
		c-3.3,0-6.8-1.7-9.4-5L273.1,86.6z"/>
</g>
<path class="st1" d="M51.3,0.7H36.6v5.7h-1.3v3.8c2.1,2,3.5,4.3,4.3,5.9c0.6,1.2,0.9,2.1,0.9,2.1c0.2,1,0.2,1.8-0.1,2.5h0.7
	c0.1,0,0.3,0,0.4,0c1-2.5,3.4-4.3,6.3-4.3c2.8,0,5.2,1.7,6.2,4.1l-6.2,0v5.4l6.2,0c-1,2.4-3.4,4.1-6.2,4.1c-2.8,0-5.3-1.8-6.3-4.3
	c-0.1,0-0.3,0-0.4,0h-5.8V27c0,1-0.7,1.9-1.6,2.1c-1.3,0.3-2.5-0.7-2.5-2v-1.3H31v2.1c0,1-0.7,1.9-1.6,2.1c-1.3,0.3-2.5-0.7-2.5-2
	v-0.9c0,1.3-1.1,2.3-2.5,2c-1-0.2-1.6-1.1-1.6-2.1v-0.8c0,1.3-1.1,2.3-2.5,2c-1-0.2-1.6-1.1-1.6-2.1v-0.3c0,0,0,0,0,0h-0.8
	c0,0-0.1,0-0.1,0c-1,2.4-3.4,4.2-6.2,4.2c-2.8,0-5.2-1.7-6.2-4.1l6.2,0v-5.4l-6.2,0c1-2.4,3.4-4.1,6.2-4.1c2.9,0,5.3,1.8,6.3,4.3
	c0,0,0,0,0.1,0h0.9v-6.4c0-1.8,1.3-2.8,1.3-2.8l1.8-1.6V6.4h-1.1V0.7H8.1c-3.7,0-6.7,3-6.7,6.7v81.2c0,3.7,3,6.7,6.7,6.7h14.2
	c0-0.3,0-0.2-0.1-0.5c-0.1-0.4-0.1-4-0.2-5.1c-0.2-4.7-2.2-8.9-2.8-13.5c-0.6-4.5-2.6-8.4-5.8-11.6c-1-0.9-1.8-2-1.4-3.5
	c0.3-1.2,2.6-0.5,3.3-0.1c2.3,1.5,3.4,4.5,5.9,5.9c-0.2-1.8-5.8-14.9-1.5-14.9c2.2,0,2.9,2.9,3.4,4.5c0.5,1.6,0.9,3.1,1.3,4.7
	c0.3,1.1,0.4,2.7,1.1,3.7c0.7-2.3-2.5-15.5,1.5-15.5c2.6,0,3.1,4,3.2,5.9c0.1,1.5,0.1,3,0.1,4.6c0,1.3-0.2,3,0.1,4.2
	c1.1-1.8,0.5-12.6,3.6-12.1c3.6,0.6,2.4,6.8,2,9C35.6,63,33,73.9,37,73.9c1.1,0,2.2-1.1,3-1.8c0.9-0.7,1.9-1.3,2.9-1.7
	c1.3-0.5,2.8-0.6,3.8,0.6c0.4,0.5,1.4,2.2,0.6,2.7c-0.7,0.4-1.7,0.5-2.4,0.9c-2,1.2-2.5,3.1-3.8,4.8c-0.7,0.9-1.8,1.4-2.6,2.1
	c-0.7,0.6-1.4,1.2-2.2,1.8c-1.2,0.9-2.6,1.6-2.4,3.3c0.3,2.3,0.1,4.7,0.2,7c0.1,0.9-0.1,1.2,0,1.6l17.2,0c3.7,0,6.7-3,6.7-6.7V7.4
	C58.1,3.7,55.1,0.7,51.3,0.7z"/>
</svg>
