<svg id="Layer_1" data-name="Layer 1" xmlns="http://www.w3.org/2000/svg" viewBox="0 0 38.35 64"><path d="M46.64,0h-10V3.84h-.85v2.6a14.23,14.23,0,0,1,2.89,4,10,10,0,0,1,.59,1.4,3.12,3.12,0,0,1,0,1.68h.49a1.27,1.27,0,0,1,.28,0,4.57,4.57,0,0,1,8.44-.13H44.29v3.65h4.19A4.57,4.57,0,0,1,40,16.94l-.28,0H35.83v.82a1.41,1.41,0,0,1-1.09,1.4,1.37,1.37,0,0,1-1.66-1.34V17h-.19v1.42a1.4,1.4,0,0,1-1.09,1.4,1.37,1.37,0,0,1-1.66-1.34v-.6a1.37,1.37,0,0,1-1.66,1.34,1.4,1.4,0,0,1-1.09-1.39v-.56a1.39,1.39,0,0,1-1.66,1.35,1.41,1.41,0,0,1-1.09-1.4V17a0,0,0,0,0,0,0H24a4.58,4.58,0,0,1-8.42.06h4.2V13.37h-4.2a4.58,4.58,0,0,1,8.45.14h.63V9.21a2.5,2.5,0,0,1,.88-1.87l1.24-1.07V3.84H26V0H17.36a4.53,4.53,0,0,0-4.53,4.54V59.46A4.53,4.53,0,0,0,17.36,64h9.57c0-.17,0-.15-.07-.35s-.09-2.7-.13-3.44c-.16-3.15-1.5-6-1.89-9.11a13.05,13.05,0,0,0-3.92-7.81,2.4,2.4,0,0,1-1-2.35c.22-.81,1.78-.36,2.24-.07,1.58,1,2.33,3.07,4,4-.15-1.24-3.91-10.08-1-10.08,1.47,0,1.92,1.93,2.27,3S28,40,28.3,41a8.86,8.86,0,0,0,.75,2.49c.5-1.57-1.69-10.5,1-10.5,1.76,0,2.09,2.72,2.19,4,.08,1,.08,2.05.09,3.08a11.45,11.45,0,0,0,.07,2.87c.75-1.22.32-8.53,2.44-8.17,2.41.42,1.62,4.57,1.38,6.1-.2,1.31-2,8.66.72,8.66.76,0,1.48-.75,2-1.19a8.11,8.11,0,0,1,2-1.18,2.16,2.16,0,0,1,2.54.38c.29.35.93,1.5.39,1.85s-1.13.32-1.62.62c-1.32.8-1.68,2.1-2.57,3.25A12.8,12.8,0,0,1,38,54.69c-.48.42-1,.82-1.46,1.21-.8.62-1.76,1.11-1.64,2.22.18,1.57,0,3.18.16,4.76A7.93,7.93,0,0,1,35,64H46.64a4.53,4.53,0,0,0,4.53-4.54V4.54A4.53,4.53,0,0,0,46.64,0Z" transform="translate(-12.83 0)"/></svg>